<svg width="400" height="150" xmlns="http://www.w3.org/2000/svg">
 <style type="text/css">.st0{fill:#50555A;}
	.st1{fill:#FF9100;}
	.st2{fill:#FFFFFF;}</style>

 <g>
  <title>background</title>
  <rect fill="none" id="canvas_background" height="152" width="402" y="-1" x="-1"/>
 </g>
 <g>
  <title>Layer 1</title>
  <g stroke="null" id="svg_2">
   <path stroke="null" id="svg_3" d="m88.732186,126.217244l0,20.18046l-83.732186,0l0,-20.18046l51.287357,-61.990806l-48.834484,0l0,-20.18046l79.606898,0l0,20.18046l-51.287357,61.990806l52.959771,0zm49.391955,20.18046l-26.647127,0l0,-102.46322l26.647127,0l0,102.46322zm147.395405,-104.693106c17.28161,0 28.765518,9.588506 28.765518,33.671265l0,71.02184l-26.647127,0l0,-66.450576c0,-11.706897 -4.45977,-15.163219 -12.375862,-15.163219c-5.797701,0 -14.048276,2.118391 -23.636782,6.578161c0.111494,1.337931 0.111494,2.675862 0.111494,4.013793l0,71.02184l-26.647127,0l0,-66.450576c0,-11.706897 -4.571264,-15.163219 -12.487357,-15.163219c-6.132184,0 -14.494253,2.341379 -23.525288,6.578161l0,75.147128l-26.647127,0l0,-102.46322l24.082759,0l1.114943,7.693104c12.933334,-6.578161 25.086207,-10.034483 35.232185,-10.034483c10.257471,0 18.842529,3.456322 23.859771,11.818391c14.717242,-7.916092 28.096552,-11.818391 38.800001,-11.818391l0,0z" class="st0"/>
   <path stroke="null" id="svg_4" d="m338.702305,20.186207l26.312644,0c0.557471,0 0.78046,0.222989 0.78046,0.445977c0,0.334483 -0.111494,0.445977 -0.557471,0.668966l-17.170115,9.7c-6.355173,3.567816 -10.145977,6.912644 -10.145977,13.713793c0,6.80115 4.236782,10.591954 10.145977,13.490805l26.870115,13.713793c0.445977,0.222989 0.668966,0.445977 0.668966,0.668966c0,0.222989 -0.111494,0.445977 -0.445977,0.557471l-36.458621,21.072414l0,19.065518l43.036782,-25.197702c7.470115,-4.348276 11.26092,-8.585058 11.26092,-15.163219c0,-8.027586 -4.348276,-12.264368 -11.037931,-15.609196l-25.309196,-12.710345c-0.334483,-0.222989 -0.557471,-0.334483 -0.557471,-0.557471c0,-0.334483 0.222989,-0.445977 0.557471,-0.668966l25.643679,-15.274713c6.578161,-4.013793 10.034483,-7.358621 9.477012,-13.936782c-0.445977,-6.02069 -5.686207,-9.365517 -14.048276,-9.365517l-39.022989,0l0,15.386207z" class="st1"/>
  </g>
 </g>
</svg>